<mxfile host="app.diagrams.net" agent="Mozilla/5.0 (Windows NT 10.0; Win64; x64) AppleWebKit/537.36 (KHTML, like Gecko) Chrome/126.0.0.0 Safari/537.36 OPR/112.0.0.0" version="24.7.7">
  <diagram name="Página-1" id="svJeI8gshzlEWG23lYJM">
    <mxGraphModel dx="1290" dy="787" grid="1" gridSize="10" guides="1" tooltips="1" connect="1" arrows="1" fold="1" page="1" pageScale="1" pageWidth="827" pageHeight="1169" math="0" shadow="0">
      <root>
        <mxCell id="0" />
        <mxCell id="1" parent="0" />
        <mxCell id="78INavMS3NXjUfxHypUY-11" value="" style="shape=mxgraph.cisco.computers_and_peripherals.macintosh;html=1;pointerEvents=1;dashed=0;fillColor=#036897;strokeColor=#ffffff;strokeWidth=2;verticalLabelPosition=bottom;verticalAlign=top;align=center;outlineConnect=0;" vertex="1" parent="1">
          <mxGeometry x="560" y="670" width="99" height="64" as="geometry" />
        </mxCell>
        <mxCell id="78INavMS3NXjUfxHypUY-15" value="Enviando" style="edgeStyle=orthogonalEdgeStyle;rounded=0;orthogonalLoop=1;jettySize=auto;html=1;" edge="1" parent="1" source="78INavMS3NXjUfxHypUY-12">
          <mxGeometry relative="1" as="geometry">
            <mxPoint x="330" y="702" as="targetPoint" />
          </mxGeometry>
        </mxCell>
        <mxCell id="78INavMS3NXjUfxHypUY-12" value="" style="shape=mxgraph.cisco.computers_and_peripherals.macintosh;html=1;pointerEvents=1;dashed=0;fillColor=#036897;strokeColor=#ffffff;strokeWidth=2;verticalLabelPosition=bottom;verticalAlign=top;align=center;outlineConnect=0;" vertex="1" parent="1">
          <mxGeometry x="100" y="670" width="99" height="64" as="geometry" />
        </mxCell>
        <mxCell id="78INavMS3NXjUfxHypUY-13" value="&lt;font style=&quot;font-size: 24px;&quot;&gt;TCP&lt;/font&gt;" style="text;html=1;align=center;verticalAlign=middle;resizable=0;points=[];autosize=1;strokeColor=none;fillColor=none;" vertex="1" parent="1">
          <mxGeometry x="330" y="590" width="70" height="40" as="geometry" />
        </mxCell>
        <mxCell id="78INavMS3NXjUfxHypUY-14" value="&lt;font style=&quot;font-size: 24px;&quot;&gt;UDP&lt;/font&gt;" style="text;html=1;align=center;verticalAlign=middle;resizable=0;points=[];autosize=1;strokeColor=none;fillColor=none;" vertex="1" parent="1">
          <mxGeometry x="330" y="810" width="70" height="40" as="geometry" />
        </mxCell>
        <mxCell id="78INavMS3NXjUfxHypUY-16" value="¿Hay error?&lt;div&gt;NO&lt;/div&gt;" style="rounded=0;whiteSpace=wrap;html=1;" vertex="1" parent="1">
          <mxGeometry x="340" y="680" width="80" height="30" as="geometry" />
        </mxCell>
        <mxCell id="78INavMS3NXjUfxHypUY-17" style="edgeStyle=orthogonalEdgeStyle;rounded=0;orthogonalLoop=1;jettySize=auto;html=1;entryX=0;entryY=0.391;entryDx=0;entryDy=0;entryPerimeter=0;" edge="1" parent="1" source="78INavMS3NXjUfxHypUY-16" target="78INavMS3NXjUfxHypUY-11">
          <mxGeometry relative="1" as="geometry">
            <Array as="points">
              <mxPoint x="560" y="700" />
            </Array>
          </mxGeometry>
        </mxCell>
        <mxCell id="78INavMS3NXjUfxHypUY-20" style="edgeStyle=orthogonalEdgeStyle;rounded=0;orthogonalLoop=1;jettySize=auto;html=1;entryX=0.5;entryY=1;entryDx=0;entryDy=0;entryPerimeter=0;" edge="1" parent="1" source="78INavMS3NXjUfxHypUY-11" target="78INavMS3NXjUfxHypUY-12">
          <mxGeometry relative="1" as="geometry">
            <Array as="points">
              <mxPoint x="610" y="754" />
              <mxPoint x="150" y="754" />
            </Array>
          </mxGeometry>
        </mxCell>
        <mxCell id="78INavMS3NXjUfxHypUY-21" value="Recibido" style="edgeLabel;html=1;align=center;verticalAlign=middle;resizable=0;points=[];" vertex="1" connectable="0" parent="78INavMS3NXjUfxHypUY-20">
          <mxGeometry x="-0.218" y="-2" relative="1" as="geometry">
            <mxPoint x="1" as="offset" />
          </mxGeometry>
        </mxCell>
        <mxCell id="78INavMS3NXjUfxHypUY-22" value="Recibido" style="fillColor=#ffff99;whiteSpace=wrap;shape=cloud;html=1;" vertex="1" parent="1">
          <mxGeometry x="390" y="720" width="100" height="75" as="geometry" />
        </mxCell>
        <mxCell id="78INavMS3NXjUfxHypUY-24" value="" style="shape=mxgraph.cisco.computers_and_peripherals.pc;html=1;pointerEvents=1;dashed=0;fillColor=#036897;strokeColor=#ffffff;strokeWidth=2;verticalLabelPosition=bottom;verticalAlign=top;align=center;outlineConnect=0;" vertex="1" parent="1">
          <mxGeometry x="571" y="940" width="78" height="70" as="geometry" />
        </mxCell>
        <mxCell id="78INavMS3NXjUfxHypUY-27" style="edgeStyle=orthogonalEdgeStyle;rounded=0;orthogonalLoop=1;jettySize=auto;html=1;" edge="1" parent="1" source="78INavMS3NXjUfxHypUY-25" target="78INavMS3NXjUfxHypUY-24">
          <mxGeometry relative="1" as="geometry" />
        </mxCell>
        <mxCell id="78INavMS3NXjUfxHypUY-29" value="Enviando" style="edgeLabel;html=1;align=center;verticalAlign=middle;resizable=0;points=[];" vertex="1" connectable="0" parent="78INavMS3NXjUfxHypUY-27">
          <mxGeometry x="-0.5759" y="2" relative="1" as="geometry">
            <mxPoint as="offset" />
          </mxGeometry>
        </mxCell>
        <mxCell id="78INavMS3NXjUfxHypUY-25" value="" style="shape=mxgraph.cisco.computers_and_peripherals.pc;html=1;pointerEvents=1;dashed=0;fillColor=#036897;strokeColor=#ffffff;strokeWidth=2;verticalLabelPosition=bottom;verticalAlign=top;align=center;outlineConnect=0;" vertex="1" parent="1">
          <mxGeometry x="111" y="940" width="78" height="70" as="geometry" />
        </mxCell>
        <mxCell id="78INavMS3NXjUfxHypUY-28" value="" style="shape=image;html=1;verticalAlign=top;verticalLabelPosition=bottom;labelBackgroundColor=#ffffff;imageAspect=0;aspect=fixed;image=https://cdn4.iconfinder.com/data/icons/icocentre-free-icons/137/f-check_256-128.png" vertex="1" parent="1">
          <mxGeometry x="503" y="900" width="68" height="68" as="geometry" />
        </mxCell>
        <mxCell id="78INavMS3NXjUfxHypUY-30" value="" style="verticalLabelPosition=bottom;html=1;verticalAlign=top;align=center;strokeColor=none;fillColor=#00BEF2;shape=mxgraph.azure.cloud_service_package_file;" vertex="1" parent="1">
          <mxGeometry x="230" y="1010" width="30" height="30" as="geometry" />
        </mxCell>
        <mxCell id="78INavMS3NXjUfxHypUY-31" value="" style="verticalLabelPosition=bottom;html=1;verticalAlign=top;align=center;strokeColor=none;fillColor=#00BEF2;shape=mxgraph.azure.cloud_service_package_file;" vertex="1" parent="1">
          <mxGeometry x="414" y="1030" width="30" height="30" as="geometry" />
        </mxCell>
        <mxCell id="78INavMS3NXjUfxHypUY-32" value="" style="verticalLabelPosition=bottom;html=1;verticalAlign=top;align=center;strokeColor=none;fillColor=#00BEF2;shape=mxgraph.azure.cloud_service_package_file;" vertex="1" parent="1">
          <mxGeometry x="340" y="1010" width="30" height="30" as="geometry" />
        </mxCell>
      </root>
    </mxGraphModel>
  </diagram>
</mxfile>
